<svg xmlns="http://www.w3.org/2000/svg" viewBox="0 0 496 496" width="512" height="512"><g fill="#FFF"><path d="M272 80V40c0-22.056-17.944-40-40-40H40C17.944 0 0 17.944 0 40v416c0 22.056 17.944 40 40 40h192c22.056 0 40-17.944 40-40v-56h224V80H272zM16 40c0-13.232 10.768-24 24-24h192c13.232 0 24 10.768 24 24v8H16v-8zm240 416c0 13.232-10.768 24-24 24H40c-13.232 0-24-10.768-24-24v-24h240v24zm0-40H16V64h240v16H128v320h128v16zm224-32H144V160h336v224zm0-240H144V96h336v48z"/><path d="M96 448h80v16H96zm64-336h16v16h-16zm32 0h16v16h-16zm32 0h16v16h-16zm16 192c13.232 0 24.608-8.064 29.472-19.544l82.848 48.328c-.104 1.08-.32 2.12-.32 3.216 0 17.648 14.352 32 32 32s32-14.352 32-32-14.352-32-32-32c-10.76 0-20.248 5.376-26.048 13.536L279.88 272l78.072-45.536C363.752 234.624 373.24 240 384 240c17.648 0 32-14.352 32-32s-14.352-32-32-32-32 14.352-32 32c0 1.096.216 2.136.328 3.208l-82.848 48.328C264.608 248.064 253.232 240 240 240c-17.648 0-32 14.352-32 32s14.352 32 32 32zm144 16c8.824 0 16 7.176 16 16s-7.176 16-16 16-16-7.176-16-16 7.176-16 16-16zm0-128c8.824 0 16 7.176 16 16s-7.176 16-16 16-16-7.176-16-16 7.176-16 16-16zm-144 64c8.824 0 16 7.176 16 16s-7.176 16-16 16-16-7.176-16-16 7.176-16 16-16zM32 384h16v16H32zm0-304h16v288H32z"/></g></svg>