<svg xmlns="http://www.w3.org/2000/svg" viewBox="0 0 496 496" width="512" height="512"><g fill="#FFF"><path d="M272 80V40c0-22.056-17.944-40-40-40H40C17.944 0 0 17.944 0 40v416c0 22.056 17.944 40 40 40h192c22.056 0 40-17.944 40-40v-56h224V80H272zM16 40c0-13.232 10.768-24 24-24h192c13.232 0 24 10.768 24 24v8H16v-8zm240 416c0 13.232-10.768 24-24 24H40c-13.232 0-24-10.768-24-24v-24h240v24zm0-40H16V64h240v16H96v320h160v16zm224-32H112V96h368v288z"/><path d="M96 448h80v16H96zm147.168-282.856c9.968-6.984 24.176-6.632 33.792.848l62.128 48.32 9.824-12.632-24.344-18.936 13.776-13.776c11.568-11.568 31.744-11.568 43.312 0l36.688 36.688 11.312-11.312-36.688-36.688C384.168 148.848 372.456 144 360 144c-3.808 0-7.528.504-11.128 1.384C339.72 134.344 326.44 128 312 128c-15.048 0-28.888 7.096-37.848 18.64-13.256-4.464-28.544-2.728-40.152 5.4l-70.584 49.408 9.168 13.112 70.584-49.416zM312 144c8.08 0 15.568 3.056 21.392 8.368-2.248 1.568-4.384 3.312-6.36 5.288l-15.192 15.192-23.52-18.296C294.288 147.976 302.808 144 312 144zM168 336h224v16H168zm240 0h16v16h-16zm-240-32h256v16H168zm0-32h256v16H168zm32-32h224v16H200zm-32 0h16v16h-16zM32 384h16v16H32zm0-144h16v128H32z"/></g></svg>