<svg xmlns="http://www.w3.org/2000/svg" viewBox="0 0 512 512" width="512" height="512"><path d="M0 31.67v448.66h512V31.67H0zm496.165 432.825H15.835V121.402h480.33v343.093zm0-358.928H15.835V47.505h480.33v58.062z" fill="#FFF"/><path fill="#FFF" d="M39.588 68.619h21.113v15.835H39.588zm31.67 0h21.113v15.835H71.258zm380.041 0h21.113v15.835h-21.113zM36.948 142.515v300.866h438.103V142.515H36.948zm422.268 285.031H52.784V385.32h406.433v42.226zm0-58.061H211.134v-68.619h131.959V184.742H195.299v184.742H52.784V158.351h406.433v211.134zm-248.082-84.454v-84.454h116.124v84.454H211.134z"/><path fill="#FFF" d="M266.557 221.691h36.948v15.835h-36.948zm-31.67 26.391h68.619v15.835h-68.619zM71.258 179.464h21.113v15.835H71.258zm0 31.67h21.113v15.835H71.258zm31.67-31.67h21.113v15.835h-21.113zm316.701 153.072h21.113v15.835h-21.113zm0-31.67h21.113v15.835h-21.113zm-31.67 31.67h21.113v15.835h-21.113z"/></svg>