<svg xmlns="http://www.w3.org/2000/svg" viewBox="0 0 512 512"><circle cx="316.611" cy="152.088" r="51.46" fill="#cee8fa"/><path d="M316.608 217.784c-36.222 0-65.691-29.469-65.691-65.691s29.469-65.691 65.691-65.691 65.691 29.469 65.691 65.691-29.468 65.691-65.691 65.691zm0-102.93c-20.533 0-37.237 16.704-37.237 37.237s16.704 37.237 37.237 37.237 37.237-16.704 37.237-37.237c0-20.531-16.704-37.237-37.237-37.237z" fill="#59f"/><path fill="#cee8fa" d="M319.036 446.943L192.883 214.149 38.274 446.943z"/><path d="M319.034 461.171H38.274a14.225 14.225 0 0 1-11.852-22.097l154.609-232.795a14.204 14.204 0 0 1 12.489-6.341 14.227 14.227 0 0 1 11.871 7.434l126.151 232.793a14.226 14.226 0 0 1-12.508 21.006zM64.802 432.716h230.341L191.646 241.728 64.802 432.716z" fill="#59f"/><path fill="#cee8fa" d="M473.726 446.943L347.574 292.86 221.422 446.943z"/><g fill="#59f"><path d="M473.728 461.171H221.423a14.23 14.23 0 0 1-11.008-23.241l126.152-154.083a14.228 14.228 0 0 1 22.016 0L484.735 437.93a14.23 14.23 0 0 1 1.85 15.104 14.23 14.23 0 0 1-12.857 8.137zm-222.27-28.455h192.235l-96.117-117.397-96.118 117.397z"/><path d="M472.804 462.13H39.196C17.583 462.13 0 444.546 0 422.934V89.066C0 67.454 17.583 49.87 39.196 49.87h433.608C494.417 49.87 512 67.454 512 89.066v333.867c0 21.613-17.582 39.197-39.196 39.197zM39.196 78.325c-5.923 0-10.742 4.819-10.742 10.742v333.867c0 5.923 4.819 10.742 10.742 10.742h433.608c5.923 0 10.741-4.819 10.741-10.742V89.066c0-5.923-4.819-10.742-10.741-10.742H39.196z"/><path d="M123.691 137.44H14.227C6.37 137.44 0 131.071 0 123.213s6.37-14.227 14.227-14.227h109.464c7.858 0 14.227 6.369 14.227 14.227s-6.369 14.227-14.227 14.227zm-27.034 57.858h-82.43C6.37 195.298 0 188.928 0 181.07s6.37-14.227 14.227-14.227h82.429c7.858 0 14.227 6.369 14.227 14.227.001 7.858-6.369 14.228-14.226 14.228z"/></g></svg>