<svg xmlns="http://www.w3.org/2000/svg" viewBox="0 0 512 512"><g fill="#59f"><path d="M60.76 139.883c-7.812 0-14.144-6.334-14.144-14.144V60.761c0-7.81 6.332-14.144 14.144-14.144h64.98c7.812 0 14.144 6.334 14.144 14.144s-6.332 14.144-14.144 14.144H74.903v50.835c0 7.811-6.332 14.143-14.143 14.143zm390.48 325.5h-64.98c-7.812 0-14.144-6.334-14.144-14.144s6.332-14.144 14.144-14.144h50.836V386.26c0-7.81 6.332-14.144 14.144-14.144s14.144 6.334 14.144 14.144v64.979c0 7.811-6.334 14.144-14.144 14.144z"/><path d="M497.856 512H14.144C6.332 512 0 505.667 0 497.856V14.144C0 6.334 6.332 0 14.144 0h483.713C505.668 0 512 6.334 512 14.144v483.713c0 7.81-6.332 14.143-14.144 14.143zM28.287 483.713h455.425V28.287H28.287v455.426z"/></g><path d="M344.266 190.939l-.047-89.934a9.586 9.586 0 0 0-9.588-9.582h-53.459c-48.637 0-97.714 35.915-97.714 116.153 0 41.561 17.614 73.932 49.904 92.34l-65.734 120.662h63.795l55.365-108.683h4.044v108.683h53.538l-.069-146.192m-64.393-134.818h10.925v124.181h-7.134c-27.662 0-44.175-22.579-44.175-60.399 0-47.026 20.861-63.782 40.384-63.782z" fill="#cee8fa"/><path d="M344.371 434.721h-53.539c-7.812 0-14.144-6.334-14.144-14.144v-57.698l-32.662 64.117a14.143 14.143 0 0 1-12.603 7.724h-63.795c-4.99 0-9.612-2.629-12.161-6.922a14.14 14.14 0 0 1-.26-13.989l59.49-109.199c-29.382-21.764-45.384-55.712-45.384-97.035 0-40.664 11.96-74.548 34.587-97.989 20.111-20.834 47.554-32.308 77.272-32.308h53.459c13.08 0 23.726 10.64 23.73 23.72l.047 89.932c.004 7.81-6.325 14.146-14.137 14.151h-.007c-7.809 0-14.139-6.328-14.144-14.137l-.045-85.38H281.17c-38.551 0-83.571 26.716-83.571 102.01 0 36.42 14.789 64.102 42.766 80.053 6.693 3.816 9.101 12.288 5.416 19.054l-54.343 99.751h31.315l51.431-100.959a14.143 14.143 0 0 1 12.603-7.724h4.044c7.812 0 14.144 6.334 14.144 14.144v94.539h25.245l-.062-132.039c-.003-7.81 6.325-14.146 14.137-14.151h.007c7.809 0 14.141 6.328 14.144 14.137l.069 146.19a14.147 14.147 0 0 1-14.144 14.152zm-53.538-156.828H283.7c-35.973 0-58.318-28.563-58.318-74.543 0-57.517 29.374-77.926 54.528-77.926h10.925c7.812 0 14.144 6.334 14.144 14.144v124.181c-.002 7.812-6.334 14.144-14.146 14.144zm-14.144-123.918c-14.288 2.383-23.02 20.843-23.02 49.375 0 15.593 3.181 40.728 23.02 45.47v-94.845z" fill="#59f"/></svg>