<svg xmlns="http://www.w3.org/2000/svg" viewBox="0 0 512 512"><path d="M65.89 494.581c-2.677 0-5.357-.661-7.789-1.995a16.197 16.197 0 0 1-8.414-14.318l.426-61.999h-3.184C21.052 416.268 0 395.216 0 369.337V64.35c0-25.879 21.052-46.931 46.929-46.931H465.07c25.878 0 46.93 21.053 46.93 46.931v304.987c0 25.879-21.052 46.931-46.929 46.931H281.386c-8.947 0-16.203-7.256-16.203-16.203s7.256-16.203 16.203-16.203H465.07c8.007 0 14.524-6.515 14.524-14.526V64.35c0-8.009-6.515-14.526-14.524-14.526H46.929c-8.007 0-14.524 6.515-14.524 14.526v304.987c0 8.009 6.515 14.526 14.524 14.526h19.498a16.204 16.204 0 0 1 16.202 16.313l-.332 48.269 95.694-61.98c7.513-4.866 17.544-2.717 22.408 4.791 4.864 7.512 2.719 17.543-4.791 22.408L74.699 491.977a16.203 16.203 0 0 1-8.809 2.604z" fill="#59f"/><path d="M89.114 309.47V124.219c0-9.767 7.918-17.684 17.684-17.684h298.404c9.767 0 17.684 7.918 17.684 17.684V309.47c0 9.767-7.918 17.684-17.684 17.684H106.798c-9.767 0-17.684-7.917-17.684-17.684z" fill="#cee8fa"/><path d="M405.202 343.357H106.798c-18.685 0-33.886-15.201-33.886-33.886V124.219c0-18.685 15.201-33.888 33.886-33.888h298.404c18.685 0 33.886 15.203 33.886 33.888V309.47c0 18.685-15.201 33.887-33.886 33.887zm-298.404-220.62c-.817 0-1.481.664-1.481 1.483v185.25c0 .817.664 1.481 1.481 1.481h298.404c.817 0 1.481-.664 1.481-1.481V124.219c0-.818-.664-1.483-1.481-1.483H106.798z" fill="#59f"/></svg>