<svg xmlns="http://www.w3.org/2000/svg" viewBox="0 0 512.001 512.001"><path d="M256.001 512.001c-1.816 0-3.633-.352-5.344-1.058-1.955-.804-48.404-20.076-95.599-51.396-65.993-43.797-99.456-88.267-99.456-132.174V71.769a14.03 14.03 0 0 1 19.885-12.751c13.865 6.364 28.692 9.592 44.066 9.592 40.666 0 78.205-23.78 95.631-60.583A14.032 14.032 0 0 1 227.865 0h56.27a14.03 14.03 0 0 1 12.681 8.027c6.359 13.429 15.311 25.183 26.604 34.932 5.866 5.064 6.517 13.924 1.454 19.789-5.062 5.865-13.924 6.517-19.789 1.454-11.978-10.339-21.873-22.468-29.497-36.14h-39.182c-23.494 41.954-68.418 68.607-116.852 68.607-12.277 0-24.285-1.63-35.889-4.862v235.565c0 66.803 119.627 132.572 172.336 155.364 52.705-22.791 172.336-88.561 172.336-155.364V91.811c-11.605 3.231-23.611 4.862-35.889 4.862-7.748 0-14.031-6.283-14.031-14.031s6.283-14.031 14.031-14.031c15.374 0 30.2-3.227 44.066-9.592a14.033 14.033 0 0 1 19.885 12.751v255.603c0 43.907-33.463 88.377-99.456 132.175-47.195 31.32-93.644 50.592-95.599 51.396a14.018 14.018 0 0 1-5.343 1.057z" fill="#59f"/><path d="M256.001 413.69c-14.411-7.31-33.637-17.817-52.472-30.426-44.363-29.699-56.858-51.111-57.843-56.535v-170.15c41.216-5.664 80.263-24.703 110.315-53.749 30.052 29.046 69.099 48.084 110.315 53.749v170.148c-.986 5.424-13.48 26.836-57.843 56.535-18.835 12.612-38.06 23.12-52.472 30.428z" fill="#cee8fa"/><g fill="#59f"><path d="M256.001 427.721c-2.176 0-4.352-.505-6.346-1.517-13.56-6.877-33.923-17.887-53.93-31.281-43.617-29.201-61.651-53.635-63.844-65.685a14.081 14.081 0 0 1-.226-2.51V156.58a14.032 14.032 0 0 1 12.12-13.901c38.197-5.25 74.589-22.986 102.474-49.938 5.44-5.256 14.063-5.256 19.503 0 27.885 26.952 64.279 44.687 102.474 49.938a14.033 14.033 0 0 1 12.12 13.901v170.147c0 .842-.076 1.682-.226 2.51-2.193 12.051-20.227 36.485-63.843 65.685-20.008 13.394-40.37 24.404-53.931 31.281a13.99 13.99 0 0 1-6.345 1.518zm-96.283-103.325c2.854 5.837 16.472 23.68 51.619 47.209 15.955 10.68 32.236 19.795 44.665 26.301 12.429-6.506 28.71-15.621 44.666-26.301 35.145-23.53 48.763-41.372 51.617-47.209V168.442c-35.301-7.024-68.763-23.248-96.284-46.677-27.52 23.428-60.983 39.653-96.284 46.677v155.954z"/><path d="M218.182 307.852a13.988 13.988 0 0 1-9.921-4.11c-5.479-5.479-5.479-14.364 0-19.844l75.638-75.638c5.48-5.478 14.362-5.478 19.844 0 5.479 5.479 5.479 14.364 0 19.844l-75.638 75.638a13.992 13.992 0 0 1-9.923 4.11z"/><path d="M293.821 307.852a13.988 13.988 0 0 1-9.921-4.11l-75.638-75.638c-5.479-5.479-5.479-14.364 0-19.844 5.481-5.478 14.362-5.478 19.844 0l75.638 75.638c5.479 5.479 5.479 14.364 0 19.844a13.992 13.992 0 0 1-9.923 4.11z"/></g></svg>