<svg xmlns="http://www.w3.org/2000/svg" viewBox="0 0 512 512"><path fill="#cee8fa" d="M15.261 19.789h481.481v96.785H15.261z"/><path d="M496.739 131.839H15.261C6.834 131.839 0 125.005 0 116.578V19.789C0 11.362 6.834 4.528 15.261 4.528h481.478c8.427 0 15.261 6.834 15.261 15.261v96.789c0 8.427-6.832 15.261-15.261 15.261zM30.522 101.317h450.956V35.05H30.522v66.267zm466.217 218.338H228.913c-8.427 0-15.261-6.834-15.261-15.261s6.834-15.261 15.261-15.261h252.565v-66.266H228.913c-8.427 0-15.261-6.834-15.261-15.261s6.834-15.261 15.261-15.261h267.826c8.427 0 15.261 6.834 15.261 15.261v96.788c0 8.427-6.832 15.261-15.261 15.261z" fill="#59f"/><path fill="#cee8fa" d="M15.261 395.425h481.481v96.785H15.261z"/><path d="M496.739 507.472H15.261C6.834 507.472 0 500.638 0 492.211v-96.789c0-8.427 6.834-15.261 15.261-15.261h481.478c8.427 0 15.261 6.834 15.261 15.261v96.789c0 8.429-6.832 15.261-15.261 15.261zM30.522 476.95h450.956v-66.267H30.522v66.267zm61.101-205.689H15.261C6.834 271.261 0 264.427 0 256s6.834-15.261 15.261-15.261h76.362c8.427 0 15.261 6.834 15.261 15.261s-6.832 15.261-15.261 15.261z" fill="#59f"/><path fill="#cee8fa" d="M76.366 208.421L158.774 256l-82.408 47.579z"/><path d="M76.366 318.84a15.26 15.26 0 0 1-15.26-15.261v-95.158a15.263 15.263 0 0 1 22.891-13.216l82.409 47.579a15.26 15.26 0 0 1 0 26.432l-82.409 47.579a15.257 15.257 0 0 1-7.631 2.045zm15.26-83.985v42.293l36.626-21.146-36.626-21.147z" fill="#59f"/></svg>