<svg xmlns="http://www.w3.org/2000/svg" viewBox="0 0 512 512"><path d="M288.978 512a15.111 15.111 0 0 1-12.972-7.366l-54.437-91.224c-4.276-7.166-1.934-16.442 5.232-20.718 7.168-4.275 16.442-1.932 20.718 5.232l39.295 65.852L467.94 44.062 48.225 225.188l146.147 87.211c7.166 4.276 9.508 13.552 5.232 20.718-4.278 7.166-13.553 9.507-20.718 5.232L7.367 235.995a15.108 15.108 0 0 1 1.756-26.848L490.902 1.238a15.115 15.115 0 0 1 16.672 3.188 15.113 15.113 0 0 1 3.188 16.672L302.853 502.879A15.107 15.107 0 0 1 288.978 512z" fill="#59f"/><path fill="#cee8fa" d="M496.89 15.112L15.11 223.021l171.519 102.352z"/><path d="M186.624 340.483c-2.658 0-5.332-.7-7.738-2.135L7.367 235.995a15.108 15.108 0 0 1 1.756-26.848L490.902 1.238a15.11 15.11 0 0 1 16.67 24.558l-310.26 310.262a15.1 15.1 0 0 1-10.688 4.425zM48.225 225.188l136.041 81.181L430.351 60.282 48.225 225.188z" fill="#59f"/></svg>