<svg id="Слой_1" xmlns="http://www.w3.org/2000/svg" viewBox="0 0 595.3 841.9"><style>.st0{fill:#27aae1}</style><g id="XMLID_3_"><path id="XMLID_1_" class="st0" d="M58.2 399.7h-25c-2.3 0-4.1-1.8-4.1-4.1V148c0-2.3 1.8-4.1 4.1-4.1h25c2.3 0 4.1 1.8 4.1 4.1v247.7c-.1 2.2-1.9 4-4.1 4z"/><path id="XMLID_2_" class="st0" d="M284.9 147.8v25.3c0 2.2-1.8 3.9-3.9 3.9H33c-2.2 0-3.9-1.8-3.9-3.9v-25.3c0-2.2 1.8-3.9 3.9-3.9h248c2.2 0 3.9 1.7 3.9 3.9z"/></g><g id="XMLID_9_"><path id="XMLID_11_" class="st0" d="M313.3 629.5v25c0 2.3-1.8 4.1-4.1 4.1H61.6c-2.3 0-4.1-1.8-4.1-4.1v-25c0-2.3 1.8-4.1 4.1-4.1h247.7c2.2 0 4 1.8 4 4.1z"/><path id="XMLID_10_" class="st0" d="M61.4 402.7h25.3c2.2 0 3.9 1.8 3.9 3.9v248c0 2.2-1.8 3.9-3.9 3.9H61.4c-2.2 0-3.9-1.8-3.9-3.9v-248c0-2.2 1.8-3.9 3.9-3.9z"/></g><g id="XMLID_16_"><path id="XMLID_18_" class="st0" d="M542.1 369.8h25c2.3 0 4.1 1.8 4.1 4.1v247.7c0 2.3-1.8 4.1-4.1 4.1h-25c-2.3 0-4.1-1.8-4.1-4.1V373.9c.1-2.3 1.9-4.1 4.1-4.1z"/><path id="XMLID_17_" class="st0" d="M315.4 621.7v-25.3c0-2.2 1.8-3.9 3.9-3.9h248c2.2 0 3.9 1.8 3.9 3.9v25.3c0 2.2-1.8 3.9-3.9 3.9h-248c-2.2 0-3.9-1.7-3.9-3.9z"/></g><g id="XMLID_6_"><path id="XMLID_12_" class="st0" d="M287 140v-25c0-2.3 1.8-4.1 4.1-4.1h247.7c2.3 0 4.1 1.8 4.1 4.1v25c0 2.3-1.8 4.1-4.1 4.1H291c-2.2 0-4-1.8-4-4.1z"/><path id="XMLID_7_" class="st0" d="M538.9 366.8h-25.3c-2.2 0-3.9-1.8-3.9-3.9v-248c0-2.2 1.8-3.9 3.9-3.9h25.3c2.2 0 3.9 1.8 3.9 3.9v248c0 2.1-1.8 3.9-3.9 3.9z"/></g></svg>